# 3ds Max Wavefront OBJ Exporter v0.97b - (c)2007 guruware
# File Created: 02.04.2017 21:52:54

mtllib bridge.mtl

#
# object Box039
#

v  17.5438 26.2270 -5.8024
v  -8.1262 25.5250 -5.8059
v  -8.1262 25.5162 -23.4883
v  17.5438 26.2182 -23.4847
v  -21.9198 26.2270 -5.8024
v  17.5438 -9.1824 -5.8024
v  -21.9198 -9.1824 -5.8024
v  -21.9198 26.2226 -23.4481
v  -21.9198 -9.1869 -23.4481
v  17.5438 -9.1913 -23.4847
v  17.5438 -9.1913 -21.8195
v  17.5438 26.2182 -21.8195
v  17.5438 26.2270 -7.2065
v  17.5438 -9.1824 -7.2065
v  -8.1262 26.2887 -5.8059
v  -8.1262 26.2799 -23.4883
v  17.7647 26.2887 -5.8059
v  17.7647 26.2799 -23.4883
v  -8.1262 26.2887 8.5329
v  17.7647 26.2887 8.5329
v  -21.6566 25.5206 -5.8181
v  -21.6566 26.2843 -5.8181
v  -21.6410 26.2887 8.5329
v  4.0596 26.2887 8.5329
v  17.7647 26.2799 -37.1708
v  -8.1262 26.2799 -37.1708
v  -21.6723 26.2799 -23.4883
v  -21.6723 25.5162 -23.4883
v  -21.6723 26.2799 -37.1708
v  3.4546 26.2799 -37.1708
v  -37.9240 26.2843 -5.8181
v  -37.9083 26.2887 8.5329
v  -37.9397 26.2799 -37.1708
v  -37.9397 26.2799 -23.4883
v  25.0999 26.2887 -5.8059
v  25.0999 26.2799 -23.4883
v  25.0999 26.2887 8.5329
v  25.0999 26.2799 -37.1708
# 38 vertices

vn -1.0000 0.0000 -0.0000
vn 0.0000 -0.0000 -1.0000
vn 0.0029 0.0000 1.0000
vn 1.0000 0.0000 -0.0000
vn -1.0000 0.0000 0.0000
vn 0.0000 1.0000 -0.0017
vn 0.0000 1.0000 0.0000
vn 0.0028 0.0000 -1.0000
vn -0.0017 1.0000 -0.0005
vn 0.0000 0.0000 1.0000
vn 0.0000 1.0000 -0.0000
vn -0.0000 1.0000 -0.0000
vn 0.0000 0.0000 -1.0000
vn -0.0000 1.0000 -0.0010
vn 1.0000 0.0000 -0.0003
vn -0.0000 1.0000 -0.0008
# 16 vertex normals

vt 0.0020 0.3092 0.0000
vt 0.0020 0.2109 0.0000
# 2 texture coords

g Box039
usemtl 09___Ceiling
s off
f 1/1/1 2/1/1 3/2/1 4/2/1 
usemtl 02___wall
f 5/1/2 1/1/2 6/1/2 7/1/2 
f 4/2/3 8/2/3 9/2/3 10/2/3 
f 8/1/4 5/1/4 7/1/4 9/1/4 
f 4/2/1 10/2/1 11/2/1 12/2/1 
f 6/1/5 1/1/5 13/1/5 14/1/5 
usemtl 09___Ceiling
f 3/2/1 2/1/1 15/1/1 16/2/1 
usemtl 08___floor
f 16/2/6 15/1/6 17/1/6 18/2/6 
f 17/1/7 15/1/7 19/1/7 20/1/7 
usemtl 09___Ceiling
f 15/1/8 2/1/8 21/1/8 22/1/8 
usemtl 08___floor
f 19/1/9 15/1/9 22/1/9 23/1/9 
usemtl 09___Ceiling
f 20/1/10 19/1/10 23/1/10 24/1/10 
usemtl 08___floor
f 16/2/11 18/2/11 25/2/11 26/2/11 
usemtl 09___Ceiling
f 3/2/10 16/2/10 27/2/10 28/2/10 
usemtl 08___floor
f 16/2/12 26/2/12 29/2/12 27/2/12 
usemtl 09___Ceiling
f 26/2/13 25/2/13 30/2/13 29/2/13 
usemtl 08___floor
f 23/1/14 22/1/14 31/1/14 32/1/14 
f 27/2/12 29/2/12 33/2/12 34/2/12 
usemtl 09___Ceiling
f 28/2/15 27/2/15 22/2/15 21/2/15 
usemtl 08___floor
f 27/2/16 34/2/16 31/2/16 22/2/16 
f 18/2/6 17/1/6 35/1/6 36/2/6 
f 17/1/7 20/1/7 37/1/7 35/1/7 
f 25/2/11 18/2/11 36/2/11 38/2/11 
# 23 polygons

#
# object Box040
#

v  -30.7322 -4.5360 -2.7562
v  17.4952 -4.5360 -2.7562
v  17.4952 -4.4448 -26.1696
v  -30.7322 -4.4448 -26.1696
# 4 vertices

vn 0.0000 1.0000 -0.0000
# 1 vertex normals

vt 0.4736 0.5000 0.0000
vt 0.0020 0.5000 0.0000
vt 0.0020 0.0284 0.0000
vt 0.4736 0.0284 0.0000
# 4 texture coords

g Box040
usemtl 08___floor
s off
f 39/3/17 40/4/17 41/5/17 42/6/17 
# 1 polygons

#
# object Object140
#

v  18.4746 -3.1452 -11.2886
v  18.4749 -4.5618 -9.7559
v  18.4743 -4.5618 -19.2874
v  18.4741 -3.1452 -17.7547
v  18.4728 13.8555 -17.7547
v  18.4724 26.2196 -19.2874
v  18.4730 26.2196 -9.7559
v  18.4732 13.8555 -11.2886
v  18.4739 -1.3050 -19.5298
v  18.4740 -4.5618 -21.9040
v  18.4722 26.2196 -21.9040
v  18.4728 12.0153 -19.5298
v  18.4735 12.0153 -9.5136
v  18.4732 26.2196 -7.1394
v  18.4751 -4.5618 -7.1394
v  18.4746 -1.3050 -9.5136
v  18.4746 -2.1340 -9.8448
v  18.4750 -4.5618 -7.6277
v  18.4750 -4.5618 -8.5771
v  18.4746 -2.8017 -10.4889
v  18.4741 -2.8017 -18.5544
v  18.4742 -4.5618 -20.4663
v  18.4741 -4.5618 -21.4157
v  18.4740 -2.1340 -19.1985
v  18.4733 13.5121 -10.4889
v  18.4731 26.2196 -8.5771
v  18.4732 26.2196 -7.6277
v  18.4734 12.8444 -9.8448
v  18.4727 12.8444 -19.1985
v  18.4722 26.2196 -21.4157
v  18.4723 26.2196 -20.4663
v  18.4727 13.5121 -18.5545
v  17.5587 -3.1451 -17.7547
v  17.5592 -3.1451 -11.2887
v  17.5578 13.8556 -11.2887
v  17.5574 13.8556 -17.7547
v  17.5574 12.0153 -19.5298
v  17.5585 -1.3049 -19.5298
v  17.5591 -1.3049 -9.5136
v  17.5581 12.0153 -9.5136
v  17.5592 -2.8017 -10.4889
v  17.5592 -2.1340 -9.8449
v  17.5585 -2.1340 -19.1985
v  17.5586 -2.8017 -18.5545
v  17.5580 12.8444 -9.8449
v  17.5579 13.5121 -10.4889
v  17.5573 13.5121 -18.5545
v  17.5573 12.8444 -19.1985
v  17.5570 26.2195 -19.2874
v  17.5569 26.2195 -20.4663
v  17.5568 26.2195 -21.4157
v  17.5568 26.2195 -21.9040
v  17.5576 26.2195 -9.7560
v  17.5577 26.2195 -8.5771
v  17.5578 26.2195 -7.6277
v  17.5578 26.2195 -7.1394
v  17.5596 -4.5619 -7.1394
v  17.5596 -4.5619 -7.6277
v  17.5596 -4.5619 -8.5771
v  17.5595 -4.5619 -9.7560
v  17.5589 -4.5619 -19.2874
v  17.5588 -4.5619 -20.4663
v  17.5587 -4.5619 -21.4157
v  17.5586 -4.5619 -21.9040
# 64 vertices

vn 1.0000 0.0002 -0.0001
vn 1.0000 0.0000 -0.0001
vn 1.0000 0.0001 0.0000
vn 1.0000 0.0001 -0.0002
vn 1.0000 0.0001 -0.0001
vn 1.0000 0.0000 -0.0000
vn 1.0000 0.0001 -0.0000
vn 0.0000 0.9764 0.2159
vn 0.0000 0.9764 0.2160
vn 0.0000 0.9764 -0.2159
vn 0.0000 0.9764 -0.2160
vn -0.0000 -0.9764 -0.2160
vn -0.0000 -0.9764 -0.2159
vn -0.0000 -0.9764 0.2160
vn -0.0000 -0.9764 0.2159
vn 0.0000 -0.1758 0.9844
vn 0.0000 0.1758 0.9844
vn -0.0000 0.1758 -0.9844
vn -0.0000 -0.1758 -0.9844
vn 0.0000 0.8025 -0.5966
vn 0.0000 0.5146 -0.8574
vn 0.0000 0.5146 0.8574
vn 0.0000 0.8025 0.5966
vn 0.0000 0.8026 0.5966
vn -0.0000 -0.5146 -0.8574
vn -0.0000 -0.8026 -0.5966
vn -0.0000 -0.8025 -0.5966
vn -0.0000 -0.8025 0.5966
vn -0.0000 -0.5146 0.8574
vn -1.0000 -0.0000 0.0001
vn -1.0000 -0.0000 0.0000
vn -1.0000 -0.0001 0.0000
vn -1.0000 -0.0001 0.0001
vn -1.0000 -0.0002 0.0001
vn -1.0000 -0.0001 0.0002
vn -1.0000 -0.0001 -0.0000
# 36 vertex normals

vt 0.2262 0.0786 0.0000
vt 0.1720 0.0244 0.0000
vt 0.5087 0.0244 0.0000
vt 0.4546 0.0786 0.0000
vt 0.4546 0.7292 0.0000
vt 0.5098 0.8998 0.0000
vt 0.1731 0.8998 0.0000
vt 0.2262 0.7292 0.0000
vt 0.5173 0.1488 0.0000
vt 0.6011 0.0241 0.0000
vt 0.6022 0.8995 0.0000
vt 0.5173 0.6585 0.0000
vt 0.1634 0.6588 0.0000
vt 0.0806 0.8998 0.0000
vt 0.0796 0.0244 0.0000
vt 0.1634 0.1490 0.0000
vt 0.1751 0.1173 0.0000
vt 0.0968 0.0244 0.0000
vt 0.1304 0.0244 0.0000
vt 0.1979 0.0917 0.0000
vt 0.4828 0.0917 0.0000
vt 0.5504 0.0244 0.0000
vt 0.5839 0.0244 0.0000
vt 0.5056 0.1173 0.0000
vt 0.1979 0.7161 0.0000
vt 0.1314 0.8998 0.0000
vt 0.0979 0.8998 0.0000
vt 0.1751 0.6905 0.0000
vt 0.5056 0.6905 0.0000
vt 0.5849 0.8998 0.0000
vt 0.5514 0.8998 0.0000
vt 0.4828 0.7161 0.0000
vt 0.4437 0.1185 0.0000
vt 0.4366 0.1524 0.0000
vt 0.2538 0.1500 0.0000
vt 0.2475 0.1160 0.0000
vt 0.2409 0.6845 0.0000
vt 0.2480 0.6507 0.0000
vt 0.4308 0.6531 0.0000
vt 0.4371 0.6871 0.0000
vt 0.5063 0.6184 0.0000
vt 0.4724 0.6113 0.0000
vt 0.4772 0.1952 0.0000
vt 0.5112 0.1888 0.0000
vt 0.1783 0.1846 0.0000
vt 0.2122 0.1918 0.0000
vt 0.2074 0.6079 0.0000
vt 0.1734 0.6142 0.0000
vt 0.2172 0.1281 0.0000
vt 0.2360 0.1571 0.0000
vt 0.2206 0.1722 0.0000
vt 0.1920 0.1526 0.0000
vt 0.4982 0.1565 0.0000
vt 0.4692 0.1754 0.0000
vt 0.4541 0.1599 0.0000
vt 0.4737 0.1314 0.0000
vt 0.1864 0.6465 0.0000
vt 0.2153 0.6277 0.0000
vt 0.2305 0.6432 0.0000
vt 0.2109 0.6717 0.0000
vt 0.4674 0.6750 0.0000
vt 0.4486 0.6460 0.0000
vt 0.4640 0.6309 0.0000
vt 0.4926 0.6504 0.0000
vt 0.1978 0.7162 0.0000
vt 0.2261 0.7294 0.0000
vt 0.1729 0.9000 0.0000
vt 0.1312 0.9000 0.0000
vt 0.0977 0.9000 0.0000
vt 0.1750 0.6907 0.0000
vt 0.0804 0.9000 0.0000
vt 0.1633 0.6589 0.0000
vt 0.4546 0.7294 0.0000
vt 0.5098 0.9000 0.0000
vt 0.4829 0.7162 0.0000
vt 0.5515 0.9000 0.0000
vt 0.5057 0.6907 0.0000
vt 0.5851 0.9000 0.0000
vt 0.6023 0.9000 0.0000
vt 0.5174 0.6589 0.0000
vt 0.6013 0.0243 0.0000
vt 0.5174 0.1490 0.0000
vt 0.5057 0.1172 0.0000
vt 0.5840 0.0243 0.0000
vt 0.5505 0.0243 0.0000
vt 0.4829 0.0917 0.0000
vt 0.4546 0.0785 0.0000
vt 0.5088 0.0243 0.0000
vt 0.2261 0.0785 0.0000
vt 0.1719 0.0243 0.0000
vt 0.1978 0.0917 0.0000
vt 0.1302 0.0243 0.0000
vt 0.1750 0.1172 0.0000
vt 0.0966 0.0243 0.0000
vt 0.0794 0.0243 0.0000
vt 0.1633 0.1490 0.0000
# 96 texture coords

g Object140
usemtl 01___doorwall
s off
f 43/7/18 44/8/18 45/9/18 46/10/18 
f 47/11/19 48/12/19 49/13/19 50/14/19 
f 51/15/20 52/16/20 53/17/20 54/18/20 
f 55/19/21 56/20/21 57/21/21 58/22/21 
f 59/23/22 60/24/22 61/25/22 62/26/22 
f 63/27/22 64/28/22 65/29/22 66/30/22 
f 67/31/19 68/32/19 69/33/19 70/34/19 
f 71/35/23 72/36/23 73/37/23 74/38/23 
f 58/22/22 57/21/22 60/24/22 59/23/22 
f 46/10/18 45/9/18 64/28/18 63/27/18 
f 70/34/22 69/33/22 56/20/22 55/19/22 
f 54/18/24 53/17/24 72/36/24 71/35/24 
f 62/26/18 61/25/18 44/8/18 43/7/18 
f 66/30/22 65/29/22 52/16/22 51/15/22 
f 50/14/19 49/13/19 68/32/19 67/31/19 
f 74/38/19 73/37/19 48/12/19 47/11/19 
f 46/39/25 75/40/26 76/41/27 43/42/28 
f 50/43/29 77/44/30 78/45/31 47/46/32 
f 54/47/33 79/48/33 80/49/34 51/50/34 
f 58/51/35 81/52/35 82/53/36 55/54/36 
f 62/55/37 83/56/37 84/57/38 59/58/38 
f 66/59/39 85/60/39 86/61/40 63/62/41 
f 70/63/42 87/64/42 88/65/43 67/66/44 
f 74/67/45 89/68/45 90/69/46 71/70/46 
f 59/58/38 84/57/38 81/52/35 58/51/35 
f 63/62/41 86/61/40 75/40/26 46/39/25 
f 55/54/36 82/53/36 87/64/42 70/63/42 
f 71/70/46 90/69/46 79/48/33 54/47/33 
f 43/42/28 76/41/27 83/56/37 62/55/37 
f 51/50/34 80/49/34 85/60/39 66/59/39 
f 67/66/44 88/65/43 77/44/30 50/43/29 
f 47/46/32 78/45/31 89/68/45 74/67/45 
f 89/71/47 78/72/47 91/73/47 92/74/47 
f 89/71/48 92/74/48 93/75/48 90/76/48 
f 94/77/49 79/78/49 90/76/49 93/75/49 
f 78/72/47 77/79/47 95/80/47 91/73/47 
f 88/81/47 96/82/47 95/80/47 77/79/47 
f 88/81/47 87/83/47 97/84/47 96/82/47 
f 98/85/50 97/84/50 87/83/50 82/86/50 
f 99/87/50 81/88/50 84/89/50 100/90/50 
f 101/91/50 100/90/50 84/89/50 83/92/50 
f 83/92/51 76/93/51 102/94/51 101/91/51 
f 82/86/52 81/88/52 99/87/52 98/85/52 
f 76/93/51 75/95/51 103/96/51 102/94/51 
f 103/96/51 75/95/51 86/97/51 104/98/51 
f 104/98/50 86/97/50 85/99/50 105/100/50 
f 106/101/50 105/100/50 85/99/50 80/102/50 
f 106/101/53 80/102/53 79/78/53 94/77/53 
# 48 polygons

#
# object Object147
#

v  -36.6113 27.5656 -11.3821
v  -36.6110 26.1489 -9.8494
v  -36.6116 26.1489 -19.3809
v  -36.6118 27.5656 -17.8482
v  -36.6131 44.5663 -17.8482
v  -36.6135 56.9304 -19.3809
v  -36.6129 56.9304 -9.8494
v  -36.6127 44.5663 -11.3821
v  -36.6120 29.4058 -19.6233
v  -36.6119 26.1489 -21.9975
v  -36.6137 56.9304 -21.9975
v  -36.6131 42.7261 -19.6233
v  -36.6124 42.7261 -9.6070
v  -36.6127 56.9304 -7.2328
v  -36.6109 26.1489 -7.2328
v  -36.6114 29.4058 -9.6070
v  -36.6113 28.5767 -9.9383
v  -36.6109 26.1489 -7.7211
v  -36.6109 26.1489 -8.6705
v  -36.6113 27.9090 -10.5824
v  -36.6119 27.9090 -18.6479
v  -36.6117 26.1489 -20.5598
v  -36.6118 26.1489 -21.5092
v  -36.6119 28.5767 -19.2920
v  -36.6126 44.2229 -10.5824
v  -36.6128 56.9304 -8.6705
v  -36.6127 56.9304 -7.7211
v  -36.6125 43.5552 -9.9383
v  -36.6132 43.5552 -19.2920
v  -36.6137 56.9304 -21.5092
v  -36.6136 56.9304 -20.5598
v  -36.6132 44.2229 -18.6479
v  -37.5272 27.5656 -17.8482
v  -37.5267 27.5656 -11.3821
v  -37.5281 44.5663 -11.3821
v  -37.5286 44.5663 -17.8482
v  -37.5285 42.7261 -19.6233
v  -37.5275 29.4058 -19.6233
v  -37.5268 29.4058 -9.6071
v  -37.5278 42.7261 -9.6071
v  -37.5267 27.9090 -10.5824
v  -37.5267 28.5767 -9.9383
v  -37.5274 28.5767 -19.2920
v  -37.5273 27.9090 -18.6479
v  -37.5279 43.5552 -9.9383
v  -37.5280 44.2229 -10.5824
v  -37.5286 44.2229 -18.6479
v  -37.5286 43.5552 -19.2920
v  -37.5289 56.9303 -19.3809
v  -37.5290 56.9303 -20.5598
v  -37.5291 56.9303 -21.5092
v  -37.5291 56.9303 -21.9975
v  -37.5283 56.9303 -9.8494
v  -37.5282 56.9303 -8.6706
v  -37.5281 56.9303 -7.7211
v  -37.5281 56.9303 -7.2329
v  -37.5263 26.1488 -7.2329
v  -37.5263 26.1488 -7.7212
v  -37.5263 26.1488 -8.6706
v  -37.5264 26.1488 -9.8494
v  -37.5271 26.1488 -19.3809
v  -37.5271 26.1488 -20.5598
v  -37.5272 26.1488 -21.5092
v  -37.5273 26.1488 -21.9975
# 64 vertices

vn 1.0000 0.0002 -0.0001
vn 1.0000 0.0000 -0.0001
vn 1.0000 0.0001 0.0000
vn 1.0000 0.0001 -0.0002
vn 1.0000 0.0001 -0.0001
vn 1.0000 0.0000 -0.0000
vn 1.0000 0.0001 -0.0000
vn 0.0000 0.9764 0.2159
vn 0.0000 0.9764 0.2160
vn 0.0000 0.9764 -0.2159
vn 0.0000 0.9764 -0.2160
vn -0.0000 -0.9764 -0.2160
vn -0.0000 -0.9764 -0.2159
vn -0.0000 -0.9764 0.2160
vn -0.0000 -0.9764 0.2159
vn 0.0000 -0.1758 0.9844
vn 0.0000 0.1758 0.9844
vn -0.0000 0.1758 -0.9844
vn -0.0000 -0.1758 -0.9844
vn 0.0000 0.8025 -0.5966
vn 0.0000 0.5146 -0.8574
vn 0.0000 0.5146 0.8574
vn 0.0000 0.8025 0.5966
vn 0.0000 0.8026 0.5966
vn -0.0000 -0.5146 -0.8574
vn -0.0000 -0.8026 -0.5966
vn -0.0000 -0.8025 -0.5966
vn -0.0000 -0.8025 0.5966
vn -0.0000 -0.5146 0.8574
vn -1.0000 -0.0000 0.0001
vn -1.0000 -0.0000 0.0000
vn -1.0000 -0.0001 0.0000
vn -1.0000 -0.0001 0.0001
vn -1.0000 -0.0002 0.0001
vn -1.0000 -0.0001 0.0002
vn -1.0000 -0.0001 -0.0000
# 36 vertex normals

vt 0.2262 0.0786 0.0000
vt 0.1720 0.0244 0.0000
vt 0.5087 0.0244 0.0000
vt 0.4546 0.0786 0.0000
vt 0.4546 0.7292 0.0000
vt 0.5098 0.8998 0.0000
vt 0.1731 0.8998 0.0000
vt 0.2262 0.7292 0.0000
vt 0.5173 0.1488 0.0000
vt 0.6011 0.0241 0.0000
vt 0.6022 0.8995 0.0000
vt 0.5173 0.6585 0.0000
vt 0.1634 0.6588 0.0000
vt 0.0806 0.8998 0.0000
vt 0.0796 0.0244 0.0000
vt 0.1634 0.1490 0.0000
vt 0.1751 0.1173 0.0000
vt 0.0968 0.0244 0.0000
vt 0.1304 0.0244 0.0000
vt 0.1979 0.0917 0.0000
vt 0.4828 0.0917 0.0000
vt 0.5504 0.0244 0.0000
vt 0.5839 0.0244 0.0000
vt 0.5056 0.1173 0.0000
vt 0.1979 0.7161 0.0000
vt 0.1314 0.8998 0.0000
vt 0.0979 0.8998 0.0000
vt 0.1751 0.6905 0.0000
vt 0.5056 0.6905 0.0000
vt 0.5849 0.8998 0.0000
vt 0.5514 0.8998 0.0000
vt 0.4828 0.7161 0.0000
vt 0.4437 0.1185 0.0000
vt 0.4366 0.1524 0.0000
vt 0.2538 0.1500 0.0000
vt 0.2475 0.1160 0.0000
vt 0.2409 0.6845 0.0000
vt 0.2480 0.6507 0.0000
vt 0.4308 0.6531 0.0000
vt 0.4371 0.6871 0.0000
vt 0.5063 0.6184 0.0000
vt 0.4724 0.6113 0.0000
vt 0.4772 0.1952 0.0000
vt 0.5112 0.1888 0.0000
vt 0.1783 0.1846 0.0000
vt 0.2122 0.1918 0.0000
vt 0.2074 0.6079 0.0000
vt 0.1734 0.6142 0.0000
vt 0.2172 0.1281 0.0000
vt 0.2360 0.1571 0.0000
vt 0.2206 0.1722 0.0000
vt 0.1920 0.1526 0.0000
vt 0.4982 0.1565 0.0000
vt 0.4692 0.1754 0.0000
vt 0.4541 0.1599 0.0000
vt 0.4737 0.1314 0.0000
vt 0.1864 0.6465 0.0000
vt 0.2153 0.6277 0.0000
vt 0.2305 0.6432 0.0000
vt 0.2109 0.6717 0.0000
vt 0.4674 0.6750 0.0000
vt 0.4486 0.6460 0.0000
vt 0.4640 0.6309 0.0000
vt 0.4926 0.6504 0.0000
vt 0.1978 0.7162 0.0000
vt 0.2261 0.7294 0.0000
vt 0.1729 0.9000 0.0000
vt 0.1312 0.9000 0.0000
vt 0.0977 0.9000 0.0000
vt 0.1750 0.6907 0.0000
vt 0.0804 0.9000 0.0000
vt 0.1633 0.6589 0.0000
vt 0.4546 0.7294 0.0000
vt 0.5098 0.9000 0.0000
vt 0.4829 0.7162 0.0000
vt 0.5515 0.9000 0.0000
vt 0.5057 0.6907 0.0000
vt 0.5851 0.9000 0.0000
vt 0.6023 0.9000 0.0000
vt 0.5174 0.6589 0.0000
vt 0.6013 0.0243 0.0000
vt 0.5174 0.1490 0.0000
vt 0.5057 0.1172 0.0000
vt 0.5840 0.0243 0.0000
vt 0.5505 0.0243 0.0000
vt 0.4829 0.0917 0.0000
vt 0.4546 0.0785 0.0000
vt 0.5088 0.0243 0.0000
vt 0.2261 0.0785 0.0000
vt 0.1719 0.0243 0.0000
vt 0.1978 0.0917 0.0000
vt 0.1302 0.0243 0.0000
vt 0.1750 0.1172 0.0000
vt 0.0966 0.0243 0.0000
vt 0.0794 0.0243 0.0000
vt 0.1633 0.1490 0.0000
# 96 texture coords

g Object147
usemtl 01___doorwall
s off
f 107/103/54 108/104/54 109/105/54 110/106/54 
f 111/107/55 112/108/55 113/109/55 114/110/55 
f 115/111/56 116/112/56 117/113/56 118/114/56 
f 119/115/57 120/116/57 121/117/57 122/118/57 
f 123/119/58 124/120/58 125/121/58 126/122/58 
f 127/123/58 128/124/58 129/125/58 130/126/58 
f 131/127/55 132/128/55 133/129/55 134/130/55 
f 135/131/59 136/132/59 137/133/59 138/134/59 
f 122/118/58 121/117/58 124/120/58 123/119/58 
f 110/106/54 109/105/54 128/124/54 127/123/54 
f 134/130/58 133/129/58 120/116/58 119/115/58 
f 118/114/60 117/113/60 136/132/60 135/131/60 
f 126/122/54 125/121/54 108/104/54 107/103/54 
f 130/126/58 129/125/58 116/112/58 115/111/58 
f 114/110/55 113/109/55 132/128/55 131/127/55 
f 138/134/55 137/133/55 112/108/55 111/107/55 
f 110/135/61 139/136/62 140/137/63 107/138/64 
f 114/139/65 141/140/66 142/141/67 111/142/68 
f 118/143/69 143/144/69 144/145/70 115/146/70 
f 122/147/71 145/148/71 146/149/72 119/150/72 
f 126/151/73 147/152/73 148/153/74 123/154/74 
f 130/155/75 149/156/75 150/157/76 127/158/77 
f 134/159/78 151/160/78 152/161/79 131/162/80 
f 138/163/81 153/164/81 154/165/82 135/166/82 
f 123/154/74 148/153/74 145/148/71 122/147/71 
f 127/158/77 150/157/76 139/136/62 110/135/61 
f 119/150/72 146/149/72 151/160/78 134/159/78 
f 135/166/82 154/165/82 143/144/69 118/143/69 
f 107/138/64 140/137/63 147/152/73 126/151/73 
f 115/146/70 144/145/70 149/156/75 130/155/75 
f 131/162/80 152/161/79 141/140/66 114/139/65 
f 111/142/68 142/141/67 153/164/81 138/163/81 
f 153/167/83 142/168/83 155/169/83 156/170/83 
f 153/167/84 156/170/84 157/171/84 154/172/84 
f 158/173/85 143/174/85 154/172/85 157/171/85 
f 142/168/83 141/175/83 159/176/83 155/169/83 
f 152/177/83 160/178/83 159/176/83 141/175/83 
f 152/177/83 151/179/83 161/180/83 160/178/83 
f 162/181/86 161/180/86 151/179/86 146/182/86 
f 163/183/86 145/184/86 148/185/86 164/186/86 
f 165/187/86 164/186/86 148/185/86 147/188/86 
f 147/188/87 140/189/87 166/190/87 165/187/87 
f 146/182/88 145/184/88 163/183/88 162/181/88 
f 140/189/87 139/191/87 167/192/87 166/190/87 
f 167/192/87 139/191/87 150/193/87 168/194/87 
f 168/194/86 150/193/86 149/195/86 169/196/86 
f 170/197/86 169/196/86 149/195/86 144/198/86 
f 170/197/89 144/198/89 143/174/89 158/173/89 
# 48 polygons

#
# object Object148
#

v  -36.5900 26.1707 -36.3898
v  -36.5900 26.1707 -21.9064
v  -36.5880 56.9262 -21.9064
v  -36.5880 56.9262 -36.3898
v  22.5796 56.9262 -36.3896
v  22.5776 26.1707 -36.3896
v  -36.5900 26.1707 7.2361
v  -36.5880 56.9262 7.2361
v  -36.5880 56.9262 -7.2473
v  -36.5900 26.1707 -7.2473
v  22.5776 26.1707 7.2361
v  22.5796 56.9262 7.2361
# 12 vertices

vn 1.0000 -0.0001 0.0000
vn -0.0000 -0.0000 1.0000
vn -0.0000 0.0000 -1.0000
vn -1.0000 0.0001 -0.0000
# 4 vertex normals

vt 0.6011 0.0244 0.0000
vt 0.6022 0.8998 0.0000
# 2 texture coords

g Object148
usemtl 02___wall
s off
f 174/200/90 173/200/90 172/199/90 171/199/90 
f 176/199/91 175/200/91 174/200/91 171/199/91 
f 180/199/90 179/200/90 178/200/90 177/199/90 
f 178/200/92 182/200/92 181/199/92 177/199/92 
f 181/199/93 182/200/93 175/200/93 176/199/93 
# 5 polygons

#
# object Box042
#

v  -37.1909 56.9037 7.4530
v  -37.1909 56.9949 -36.5657
v  23.9515 56.9949 -36.5657
v  23.9514 56.9037 7.4530
# 4 vertices

vn 0.0000 -1.0000 -0.0017
# 1 vertex normals

vt 0.4736 0.5000 0.0000
vt 0.4736 0.0284 0.0000
vt 0.0020 0.0284 0.0000
vt 0.0020 0.5000 0.0000
# 4 texture coords

g Box042
usemtl 09___Ceiling
s off
f 183/201/94 184/202/94 185/203/94 186/204/94 
# 1 polygons

