# 3ds Max Wavefront OBJ Exporter v0.97b - (c)2007 guruware
# File Created: 03.04.2017 12:37:46

mtllib engine room.mtl

#
# object Box035
#

v  -181.1381 126.2037 -13.0704
v  151.4473 -82.8833 -13.3020
v  151.4473 126.2036 -13.0704
v  -181.1381 -82.8833 -13.3020
# 4 vertices

vn 0.0000 0.0000 1.0000
# 1 vertex normals

vt 0.4736 0.0284 0.0000
vt 0.0020 0.5000 0.0000
vt 0.0020 0.0284 0.0000
vt 0.4736 0.5000 0.0000
# 4 texture coords

g Box035
usemtl 08___floor
s off
f 1/1/1 2/2/1 3/3/1 
f 2/2/1 1/1/1 4/4/1 
# 0 polygons - 2 triangles

#
# object Object136
#

v  145.2926 125.2797 64.8068
v  145.2875 40.3289 -13.3121
v  145.2875 125.2797 -13.3121
v  145.2926 40.3289 64.8068
v  145.2628 -81.3702 64.8068
v  145.2875 3.0948 -13.3121
v  145.2926 3.0948 64.8069
v  145.2577 -81.3702 -13.3121
v  -177.2617 125.2787 64.8068
v  -177.2668 125.2787 -13.3121
v  -177.2669 -81.4648 -13.3121
v  -177.2618 -81.4648 64.8069
# 12 vertices

vn -1.0000 -0.0000 0.0001
vn -1.0000 0.0004 0.0001
vn 0.0000 -1.0000 -0.0000
vn 1.0000 0.0000 -0.0001
vn -0.0003 1.0000 0.0000
# 5 vertex normals

vt 0.6022 0.8998 0.0000
vt 0.6011 0.0244 0.0000
# 2 texture coords

g Object136
usemtl 02___wall
s off
f 7/6/2 6/6/2 5/5/2 
f 8/5/2 5/5/2 6/6/2 
f 11/5/3 10/6/3 9/5/3 
f 12/6/3 9/5/3 10/6/3 
f 5/5/4 13/5/4 7/6/4 
f 14/6/4 7/6/4 13/5/4 
f 14/6/5 13/5/5 15/6/5 
f 16/5/5 15/6/5 13/5/5 
f 12/6/6 16/5/6 9/5/6 
f 15/6/6 16/5/6 12/6/6 
# 0 polygons - 10 triangles

#
# object Object137
#

v  147.5701 9.7045 -13.3676
v  147.5681 30.0214 -9.7692
v  147.5693 13.5976 -9.7692
v  147.5685 33.9145 -13.3676
v  147.5653 9.7045 64.8173
v  147.5647 30.0214 33.4125
v  147.5637 33.9145 64.8173
v  147.5658 13.5976 33.4125
v  147.5679 40.5606 -13.3676
v  147.5647 34.5301 28.7384
v  147.5675 34.5301 -5.0951
v  147.5633 40.5606 64.8173
v  147.5659 3.0584 64.8173
v  147.5705 3.0584 -13.3676
v  147.5665 9.0889 28.7384
v  147.5692 9.0889 -5.0951
v  147.5693 9.9303 -7.2010
v  147.5704 4.2987 -13.3676
v  147.5703 6.7102 -13.3676
v  147.5693 11.5662 -8.8969
v  147.5683 36.9088 -13.3676
v  147.5677 33.6887 -7.2010
v  147.5679 32.0527 -8.8969
v  147.5681 39.3203 -13.3676
v  147.5658 4.2987 64.8173
v  147.5662 9.9303 30.8443
v  147.5660 11.5662 32.5403
v  147.5655 6.7102 64.8173
v  147.5634 39.3203 64.8173
v  147.5646 32.0527 32.5403
v  147.5646 33.6887 30.8443
v  147.5635 36.9088 64.8173
v  145.2441 13.5976 -9.7692
v  145.2430 30.0214 -9.7692
v  145.2406 13.5976 33.4126
v  145.2395 30.0215 33.4126
v  145.2423 34.5301 -5.0951
v  145.2396 34.5301 28.7385
v  145.2441 9.0889 -5.0951
v  145.2413 9.0889 28.7385
v  145.2442 11.5663 -8.8969
v  145.2442 9.9304 -7.2009
v  145.2428 32.0528 -8.8969
v  145.2426 33.6887 -7.2009
v  145.2411 9.9304 30.8444
v  145.2409 11.5663 32.5403
v  145.2395 33.6887 30.8444
v  145.2395 32.0528 32.5403
v  145.2383 36.9089 64.8171
v  145.2385 33.9145 64.8171
v  145.2382 39.3203 64.8171
v  145.2382 40.5606 64.8171
v  145.2402 9.7046 64.8171
v  145.2404 6.7102 64.8171
v  145.2406 4.2987 64.8171
v  145.2407 3.0584 64.8171
v  145.2453 4.2987 -13.3678
v  145.2453 3.0584 -13.3678
v  145.2452 6.7102 -13.3678
v  145.2450 9.7046 -13.3678
v  145.2433 33.9145 -13.3678
v  145.2431 36.9088 -13.3678
v  145.2429 39.3203 -13.3678
v  145.2428 40.5606 -13.3678
# 64 vertices

vn 1.0000 0.0001 0.0002
vn 1.0000 0.0001 0.0000
vn 1.0000 -0.0000 0.0001
vn 1.0000 0.0002 0.0001
vn 1.0000 0.0001 0.0001
vn 1.0000 0.0000 0.0000
vn 1.0000 0.0000 0.0001
vn 0.0000 0.2159 0.9764
vn 0.0000 -0.2159 0.9764
vn 0.0000 -0.2160 0.9764
vn 0.0000 0.2160 0.9764
vn -0.0000 0.2159 -0.9764
vn -0.0000 -0.2159 -0.9764
vn -0.0000 0.2160 -0.9764
vn -0.0000 -0.2160 -0.9764
vn 0.0000 -0.9844 0.1758
vn 0.0000 -0.9844 -0.1758
vn -0.0000 0.9844 0.1758
vn -0.0000 0.9844 -0.1758
vn 0.0000 0.5966 0.8025
vn 0.0000 0.8574 0.5146
vn 0.0000 -0.5966 0.8025
vn 0.0000 -0.8574 0.5146
vn 0.0000 -0.5966 0.8026
vn -0.0000 0.8574 -0.5146
vn -0.0000 0.5966 -0.8025
vn -0.0000 0.5966 -0.8026
vn -0.0000 -0.8574 -0.5146
vn -0.0000 -0.5966 -0.8025
vn -1.0000 -0.0001 -0.0000
vn -1.0000 -0.0000 -0.0000
vn -1.0000 -0.0000 -0.0001
vn -1.0000 -0.0001 -0.0001
vn -1.0000 -0.0001 -0.0002
vn -1.0000 -0.0002 -0.0001
vn -1.0000 0.0000 -0.0001
# 36 vertex normals

vt 0.1720 0.0244 0.0000
vt 0.4546 0.0786 0.0000
vt 0.2262 0.0786 0.0000
vt 0.5087 0.0244 0.0000
vt 0.1731 0.8998 0.0000
vt 0.4546 0.7292 0.0000
vt 0.5098 0.8998 0.0000
vt 0.2262 0.7292 0.0000
vt 0.6011 0.0241 0.0000
vt 0.5173 0.6585 0.0000
vt 0.5173 0.1488 0.0000
vt 0.6022 0.8995 0.0000
vt 0.0806 0.8998 0.0000
vt 0.0796 0.0244 0.0000
vt 0.1634 0.6588 0.0000
vt 0.1634 0.1490 0.0000
vt 0.1751 0.1173 0.0000
vt 0.0968 0.0244 0.0000
vt 0.1304 0.0244 0.0000
vt 0.1979 0.0917 0.0000
vt 0.5504 0.0244 0.0000
vt 0.5056 0.1173 0.0000
vt 0.4828 0.0917 0.0000
vt 0.5839 0.0244 0.0000
vt 0.0979 0.8998 0.0000
vt 0.1751 0.6905 0.0000
vt 0.1979 0.7161 0.0000
vt 0.1314 0.8998 0.0000
vt 0.5849 0.8998 0.0000
vt 0.4828 0.7161 0.0000
vt 0.5056 0.6905 0.0000
vt 0.5514 0.8998 0.0000
vt 0.2538 0.1500 0.0000
vt 0.4437 0.1185 0.0000
vt 0.4366 0.1524 0.0000
vt 0.2475 0.1160 0.0000
vt 0.2480 0.6507 0.0000
vt 0.4371 0.6871 0.0000
vt 0.2409 0.6845 0.0000
vt 0.4308 0.6531 0.0000
vt 0.4772 0.1952 0.0000
vt 0.5063 0.6184 0.0000
vt 0.4724 0.6113 0.0000
vt 0.5112 0.1888 0.0000
vt 0.2122 0.1918 0.0000
vt 0.1734 0.6142 0.0000
vt 0.1783 0.1846 0.0000
vt 0.2074 0.6079 0.0000
vt 0.2360 0.1571 0.0000
vt 0.1920 0.1526 0.0000
vt 0.2172 0.1281 0.0000
vt 0.2206 0.1722 0.0000
vt 0.4541 0.1599 0.0000
vt 0.4982 0.1565 0.0000
vt 0.4692 0.1754 0.0000
vt 0.4737 0.1314 0.0000
vt 0.2153 0.6277 0.0000
vt 0.2109 0.6717 0.0000
vt 0.1864 0.6465 0.0000
vt 0.2305 0.6432 0.0000
vt 0.4640 0.6309 0.0000
vt 0.4674 0.6750 0.0000
vt 0.4486 0.6460 0.0000
vt 0.4926 0.6504 0.0000
vt 0.2261 0.7294 0.0000
vt 0.1312 0.9000 0.0000
vt 0.1978 0.7162 0.0000
vt 0.1729 0.9000 0.0000
vt 0.0977 0.9000 0.0000
vt 0.1750 0.6907 0.0000
vt 0.0804 0.9000 0.0000
vt 0.1633 0.6589 0.0000
vt 0.4546 0.7294 0.0000
vt 0.5098 0.9000 0.0000
vt 0.5515 0.9000 0.0000
vt 0.4829 0.7162 0.0000
vt 0.5057 0.6907 0.0000
vt 0.5851 0.9000 0.0000
vt 0.5174 0.6589 0.0000
vt 0.6023 0.9000 0.0000
vt 0.5174 0.1490 0.0000
vt 0.5840 0.0243 0.0000
vt 0.6013 0.0243 0.0000
vt 0.5057 0.1172 0.0000
vt 0.5505 0.0243 0.0000
vt 0.4829 0.0917 0.0000
vt 0.4546 0.0785 0.0000
vt 0.5088 0.0243 0.0000
vt 0.1719 0.0243 0.0000
vt 0.2261 0.0785 0.0000
vt 0.1978 0.0917 0.0000
vt 0.1302 0.0243 0.0000
vt 0.1750 0.1172 0.0000
vt 0.0966 0.0243 0.0000
vt 0.1633 0.1490 0.0000
vt 0.0794 0.0243 0.0000
# 96 texture coords

g Object137
usemtl 01___doorwall
s off
f 17/7/7 18/8/7 19/9/7 
f 18/8/7 17/7/7 20/10/7 
f 21/11/8 22/12/8 23/13/8 
f 22/12/8 21/11/8 24/14/8 
f 25/15/9 26/16/9 27/17/9 
f 25/15/9 28/18/9 26/16/9 
f 29/19/10 30/20/10 31/21/10 
f 31/21/10 30/20/10 32/22/10 
f 33/23/11 34/24/11 35/25/11 
f 33/23/11 35/25/11 36/26/11 
f 37/27/11 38/28/11 39/29/11 
f 38/28/11 37/27/11 40/30/11 
f 41/31/8 42/32/8 43/33/8 
f 41/31/8 43/33/8 44/34/8 
f 45/35/12 46/36/12 47/37/12 
f 46/36/12 45/35/12 48/38/12 
f 32/22/11 30/20/11 34/24/11 
f 32/22/11 34/24/11 33/23/11 
f 20/10/7 39/29/7 18/8/7 
f 39/29/7 20/10/7 37/27/7 
f 29/19/11 31/21/11 42/32/11 
f 29/19/11 42/32/11 41/31/11 
f 28/18/13 47/37/13 26/16/13 
f 47/37/13 28/18/13 45/35/13 
f 17/7/7 19/9/7 36/26/7 
f 36/26/7 35/25/7 17/7/7 
f 40/30/11 27/17/11 38/28/11 
f 27/17/11 40/30/11 25/15/11 
f 44/34/8 43/33/8 24/14/8 
f 44/34/8 24/14/8 21/11/8 
f 48/38/8 22/12/8 46/36/8 
f 22/12/8 48/38/8 23/13/8 
f 49/39/14 18/40/15 50/41/16 
f 18/40/15 49/39/14 19/42/17 
f 51/43/18 22/44/19 24/45/20 
f 22/44/19 51/43/18 52/46/21 
f 53/47/22 26/48/23 54/49/23 
f 26/48/23 53/47/22 27/50/22 
f 55/51/24 31/52/25 32/53/24 
f 31/52/25 55/51/24 56/54/25 
f 57/55/26 33/56/27 36/57/26 
f 33/56/27 57/55/26 58/58/27 
f 59/59/28 38/60/29 60/61/29 
f 38/60/29 59/59/28 39/62/30 
f 61/63/31 43/64/32 42/65/31 
f 43/64/32 61/63/31 62/66/33 
f 63/67/34 46/68/35 64/69/35 
f 46/68/35 63/67/34 47/70/34 
f 58/58/27 32/53/24 33/56/27 
f 32/53/24 58/58/27 55/51/24 
f 50/41/16 39/62/30 59/59/28 
f 39/62/30 50/41/16 18/40/15 
f 56/54/25 42/65/31 31/52/25 
f 42/65/31 56/54/25 61/63/31 
f 54/49/23 47/70/34 63/67/34 
f 47/70/34 54/49/23 26/48/23 
f 57/55/26 19/42/17 49/39/14 
f 19/42/17 57/55/26 36/57/26 
f 60/61/29 27/50/22 53/47/22 
f 27/50/22 60/61/29 38/60/29 
f 62/66/33 24/45/20 43/64/32 
f 24/45/20 62/66/33 51/43/18 
f 52/46/21 46/68/35 22/44/19 
f 46/68/35 52/46/21 64/69/35 
f 52/71/36 65/72/36 64/73/36 
f 65/72/36 52/71/36 66/74/36 
f 67/75/37 63/76/37 64/73/37 
f 64/73/37 65/72/37 67/75/37 
f 68/77/38 54/78/38 63/76/38 
f 68/77/38 63/76/38 67/75/38 
f 51/79/36 69/80/36 52/71/36 
f 52/71/36 69/80/36 66/74/36 
f 51/79/36 70/81/36 69/80/36 
f 70/81/36 51/79/36 62/82/36 
f 61/83/36 71/84/36 62/82/36 
f 62/82/36 71/84/36 70/81/36 
f 56/85/39 72/86/39 61/83/39 
f 61/83/39 72/86/39 71/84/39 
f 55/87/39 73/88/39 74/89/39 
f 73/88/39 55/87/39 58/90/39 
f 73/88/39 58/90/39 75/91/39 
f 75/91/39 58/90/39 57/92/39 
f 49/93/40 76/94/40 57/92/40 
f 75/91/40 57/92/40 76/94/40 
f 74/89/41 56/85/41 55/87/41 
f 74/89/41 72/86/41 56/85/41 
f 77/95/40 76/94/40 49/93/40 
f 77/95/40 49/93/40 50/96/40 
f 59/97/40 78/98/40 77/95/40 
f 59/97/40 77/95/40 50/96/40 
f 60/99/39 79/100/39 78/98/39 
f 60/99/39 78/98/39 59/97/39 
f 79/100/39 53/101/39 80/102/39 
f 53/101/39 79/100/39 60/99/39 
f 54/78/42 80/102/42 53/101/42 
f 68/77/42 80/102/42 54/78/42 
# 0 polygons - 96 triangles

